<svg width="24" height="24" viewBox="0 0 24 24" fill="none" xmlns="http://www.w3.org/2000/svg">
<path d="M7.16667 19C5.88333 19 4.845 20.05 4.845 21.3333C4.845 22.6167 5.88333 23.6667 7.16667 23.6667C8.45 23.6667 9.5 22.6167 9.5 21.3333C9.5 20.05 8.45 19 7.16667 19ZM0.166667 0.333344V2.66668H2.5L6.7 11.5217L5.125 14.38C4.93833 14.7067 4.83333 15.0917 4.83333 15.5C4.83333 16.7833 5.88333 17.8333 7.16667 17.8333H21.1667V15.5H7.65667C7.49333 15.5 7.365 15.3717 7.365 15.2083L7.4 15.0683L8.45 13.1667H17.1417C18.0167 13.1667 18.7867 12.6883 19.1833 11.965L23.36 4.39334C23.4533 4.23001 23.5 4.03168 23.5 3.83334C23.5 3.19168 22.975 2.66668 22.3333 2.66668H5.07833L3.98167 0.333344H0.166667ZM18.8333 19C17.55 19 16.5117 20.05 16.5117 21.3333C16.5117 22.6167 17.55 23.6667 18.8333 23.6667C20.1167 23.6667 21.1667 22.6167 21.1667 21.3333C21.1667 20.05 20.1167 19 18.8333 19Z" fill="#8D8D8D"/>
</svg>
